;<svg
  width="8"
  height="844"
  viewBox="0 0 8 844"
  fill="none"
  xmlns="http://www.w3.org/2000/svg"
>
  <rect
    width="8"
    height="1"
    transform="matrix(-1 0 0 1 8 4)"
    fill="white"
    fillOpacity="0.1"
  />
  <rect
    width="8"
    height="1"
    transform="matrix(-1 0 0 1 8 13)"
    fill="white"
    fillOpacity="0.1"
  />
  <rect
    width="8"
    height="1"
    transform="matrix(-1 0 0 1 8 22)"
    fill="white"
    fillOpacity="0.1"
  />
  <rect
    width="8"
    height="1"
    transform="matrix(-1 0 0 1 8 31)"
    fill="white"
    fillOpacity="0.1"
  />
  <rect
    width="8"
    height="1"
    transform="matrix(-1 0 0 1 8 40)"
    fill="white"
    fillOpacity="0.1"
  />
  <rect
    width="8"
    height="1"
    transform="matrix(-1 0 0 1 8 49)"
    fill="white"
    fillOpacity="0.1"
  />
  <rect
    width="8"
    height="1"
    transform="matrix(-1 0 0 1 8 58)"
    fill="white"
    fillOpacity="0.1"
  />
  <rect
    width="8"
    height="1"
    transform="matrix(-1 0 0 1 8 67)"
    fill="white"
    fillOpacity="0.1"
  />
  <rect
    width="8"
    height="1"
    transform="matrix(-1 0 0 1 8 76)"
    fill="white"
    fillOpacity="0.1"
  />
  <rect
    width="8"
    height="1"
    transform="matrix(-1 0 0 1 8 85)"
    fill="white"
    fillOpacity="0.1"
  />
  <rect
    width="8"
    height="1"
    transform="matrix(-1 0 0 1 8 94)"
    fill="white"
    fillOpacity="0.1"
  />
  <rect
    width="8"
    height="1"
    transform="matrix(-1 0 0 1 8 103)"
    fill="white"
    fillOpacity="0.1"
  />
  <rect
    width="8"
    height="1"
    transform="matrix(-1 0 0 1 8 112)"
    fill="white"
    fillOpacity="0.1"
  />
  <rect
    width="8"
    height="1"
    transform="matrix(-1 0 0 1 8 121)"
    fill="white"
    fillOpacity="0.1"
  />
  <rect
    width="8"
    height="1"
    transform="matrix(-1 0 0 1 8 130)"
    fill="white"
    fillOpacity="0.1"
  />
  <rect
    width="8"
    height="1"
    transform="matrix(-1 0 0 1 8 139)"
    fill="white"
    fillOpacity="0.1"
  />
  <rect
    width="8"
    height="1"
    transform="matrix(-1 0 0 1 8 148)"
    fill="white"
    fillOpacity="0.1"
  />
  <rect
    width="8"
    height="1"
    transform="matrix(-1 0 0 1 8 157)"
    fill="white"
    fillOpacity="0.1"
  />
  <rect
    width="8"
    height="1"
    transform="matrix(-1 0 0 1 8 166)"
    fill="white"
    fillOpacity="0.1"
  />
  <rect
    width="8"
    height="1"
    transform="matrix(-1 0 0 1 8 175)"
    fill="white"
    fillOpacity="0.1"
  />
  <rect
    width="8"
    height="1"
    transform="matrix(-1 0 0 1 8 184)"
    fill="white"
    fillOpacity="0.1"
  />
  <rect
    width="8"
    height="1"
    transform="matrix(-1 0 0 1 8 193)"
    fill="white"
    fillOpacity="0.1"
  />
  <rect
    width="8"
    height="1"
    transform="matrix(-1 0 0 1 8 202)"
    fill="white"
    fillOpacity="0.1"
  />
  <rect
    width="8"
    height="1"
    transform="matrix(-1 0 0 1 8 211)"
    fill="white"
    fillOpacity="0.1"
  />
  <rect
    width="8"
    height="1"
    transform="matrix(-1 0 0 1 8 220)"
    fill="white"
    fillOpacity="0.1"
  />
  <rect
    width="8"
    height="1"
    transform="matrix(-1 0 0 1 8 229)"
    fill="white"
    fillOpacity="0.1"
  />
  <rect
    width="8"
    height="1"
    transform="matrix(-1 0 0 1 8 238)"
    fill="white"
    fillOpacity="0.1"
  />
  <rect
    width="8"
    height="1"
    transform="matrix(-1 0 0 1 8 247)"
    fill="white"
    fillOpacity="0.1"
  />
  <rect
    width="8"
    height="1"
    transform="matrix(-1 0 0 1 8 256)"
    fill="white"
    fillOpacity="0.1"
  />
  <rect
    width="8"
    height="1"
    transform="matrix(-1 0 0 1 8 265)"
    fill="white"
    fillOpacity="0.1"
  />
  <rect
    width="8"
    height="1"
    transform="matrix(-1 0 0 1 8 274)"
    fill="white"
    fillOpacity="0.1"
  />
  <rect
    width="8"
    height="1"
    transform="matrix(-1 0 0 1 8 283)"
    fill="white"
    fillOpacity="0.1"
  />
  <rect
    width="8"
    height="1"
    transform="matrix(-1 0 0 1 8 292)"
    fill="white"
    fillOpacity="0.1"
  />
  <rect
    width="8"
    height="1"
    transform="matrix(-1 0 0 1 8 301)"
    fill="white"
    fillOpacity="0.1"
  />
  <rect
    width="8"
    height="1"
    transform="matrix(-1 0 0 1 8 310)"
    fill="white"
    fillOpacity="0.1"
  />
  <rect
    width="8"
    height="1"
    transform="matrix(-1 0 0 1 8 319)"
    fill="white"
    fillOpacity="0.1"
  />
  <rect
    width="8"
    height="1"
    transform="matrix(-1 0 0 1 8 328)"
    fill="white"
    fillOpacity="0.1"
  />
  <rect
    width="8"
    height="1"
    transform="matrix(-1 0 0 1 8 337)"
    fill="white"
    fillOpacity="0.1"
  />
  <rect
    width="8"
    height="1"
    transform="matrix(-1 0 0 1 8 346)"
    fill="white"
    fillOpacity="0.1"
  />
  <rect
    width="8"
    height="1"
    transform="matrix(-1 0 0 1 8 355)"
    fill="white"
    fillOpacity="0.1"
  />
  <rect
    width="8"
    height="1"
    transform="matrix(-1 0 0 1 8 364)"
    fill="white"
    fillOpacity="0.1"
  />
  <rect
    width="8"
    height="1"
    transform="matrix(-1 0 0 1 8 373)"
    fill="white"
    fillOpacity="0.1"
  />
  <rect
    width="8"
    height="1"
    transform="matrix(-1 0 0 1 8 382)"
    fill="white"
    fillOpacity="0.1"
  />
  <rect
    width="8"
    height="1"
    transform="matrix(-1 0 0 1 8 391)"
    fill="white"
    fillOpacity="0.1"
  />
  <rect
    width="8"
    height="1"
    transform="matrix(-1 0 0 1 8 400)"
    fill="white"
    fillOpacity="0.1"
  />
  <rect
    width="8"
    height="1"
    transform="matrix(-1 0 0 1 8 409)"
    fill="white"
    fillOpacity="0.1"
  />
  <rect
    width="8"
    height="1"
    transform="matrix(-1 0 0 1 8 418)"
    fill="white"
    fillOpacity="0.1"
  />
  <rect
    width="8"
    height="1"
    transform="matrix(-1 0 0 1 8 427)"
    fill="white"
    fillOpacity="0.1"
  />
  <rect
    width="8"
    height="1"
    transform="matrix(-1 0 0 1 8 436)"
    fill="white"
    fillOpacity="0.1"
  />
  <rect
    width="8"
    height="1"
    transform="matrix(-1 0 0 1 8 445)"
    fill="white"
    fillOpacity="0.1"
  />
  <rect
    width="8"
    height="1"
    transform="matrix(-1 0 0 1 8 454)"
    fill="white"
    fillOpacity="0.1"
  />
  <rect
    width="8"
    height="1"
    transform="matrix(-1 0 0 1 8 463)"
    fill="white"
    fillOpacity="0.1"
  />
  <rect
    width="8"
    height="1"
    transform="matrix(-1 0 0 1 8 472)"
    fill="white"
    fillOpacity="0.1"
  />
  <rect
    width="8"
    height="1"
    transform="matrix(-1 0 0 1 8 481)"
    fill="white"
    fillOpacity="0.1"
  />
  <rect
    width="8"
    height="1"
    transform="matrix(-1 0 0 1 8 490)"
    fill="white"
    fillOpacity="0.1"
  />
  <rect
    width="8"
    height="1"
    transform="matrix(-1 0 0 1 8 499)"
    fill="white"
    fillOpacity="0.1"
  />
  <rect
    width="8"
    height="1"
    transform="matrix(-1 0 0 1 8 508)"
    fill="white"
    fillOpacity="0.1"
  />
  <rect
    width="8"
    height="1"
    transform="matrix(-1 0 0 1 8 517)"
    fill="white"
    fillOpacity="0.1"
  />
  <rect
    width="8"
    height="1"
    transform="matrix(-1 0 0 1 8 526)"
    fill="white"
    fillOpacity="0.1"
  />
  <rect
    width="8"
    height="1"
    transform="matrix(-1 0 0 1 8 535)"
    fill="white"
    fillOpacity="0.1"
  />
  <rect
    width="8"
    height="1"
    transform="matrix(-1 0 0 1 8 544)"
    fill="white"
    fillOpacity="0.1"
  />
  <rect
    width="8"
    height="1"
    transform="matrix(-1 0 0 1 8 553)"
    fill="white"
    fillOpacity="0.1"
  />
  <rect
    width="8"
    height="1"
    transform="matrix(-1 0 0 1 8 562)"
    fill="white"
    fillOpacity="0.1"
  />
  <rect
    width="8"
    height="1"
    transform="matrix(-1 0 0 1 8 571)"
    fill="white"
    fillOpacity="0.1"
  />
  <rect
    width="8"
    height="1"
    transform="matrix(-1 0 0 1 8 580)"
    fill="white"
    fillOpacity="0.1"
  />
  <rect
    width="8"
    height="1"
    transform="matrix(-1 0 0 1 8 589)"
    fill="white"
    fillOpacity="0.1"
  />
  <rect
    width="8"
    height="1"
    transform="matrix(-1 0 0 1 8 598)"
    fill="white"
    fillOpacity="0.1"
  />
  <rect
    width="8"
    height="1"
    transform="matrix(-1 0 0 1 8 607)"
    fill="white"
    fillOpacity="0.1"
  />
  <rect
    width="8"
    height="1"
    transform="matrix(-1 0 0 1 8 616)"
    fill="white"
    fillOpacity="0.1"
  />
  <rect
    width="8"
    height="1"
    transform="matrix(-1 0 0 1 8 625)"
    fill="white"
    fillOpacity="0.1"
  />
  <rect
    width="8"
    height="1"
    transform="matrix(-1 0 0 1 8 634)"
    fill="white"
    fillOpacity="0.1"
  />
  <rect
    width="8"
    height="1"
    transform="matrix(-1 0 0 1 8 643)"
    fill="white"
    fillOpacity="0.1"
  />
  <rect
    width="8"
    height="1"
    transform="matrix(-1 0 0 1 8 652)"
    fill="white"
    fillOpacity="0.1"
  />
  <rect
    width="8"
    height="1"
    transform="matrix(-1 0 0 1 8 661)"
    fill="white"
    fillOpacity="0.1"
  />
  <rect
    width="8"
    height="1"
    transform="matrix(-1 0 0 1 8 670)"
    fill="white"
    fillOpacity="0.1"
  />
  <rect
    width="8"
    height="1"
    transform="matrix(-1 0 0 1 8 679)"
    fill="white"
    fillOpacity="0.1"
  />
  <rect
    width="8"
    height="1"
    transform="matrix(-1 0 0 1 8 688)"
    fill="white"
    fillOpacity="0.1"
  />
  <rect
    width="8"
    height="1"
    transform="matrix(-1 0 0 1 8 697)"
    fill="white"
    fillOpacity="0.1"
  />
  <rect
    width="8"
    height="1"
    transform="matrix(-1 0 0 1 8 706)"
    fill="white"
    fillOpacity="0.1"
  />
  <rect
    width="8"
    height="1"
    transform="matrix(-1 0 0 1 8 715)"
    fill="white"
    fillOpacity="0.1"
  />
  <rect
    width="8"
    height="1"
    transform="matrix(-1 0 0 1 8 724)"
    fill="white"
    fillOpacity="0.1"
  />
  <rect
    width="8"
    height="1"
    transform="matrix(-1 0 0 1 8 733)"
    fill="white"
    fillOpacity="0.1"
  />
  <rect
    width="8"
    height="1"
    transform="matrix(-1 0 0 1 8 742)"
    fill="white"
    fillOpacity="0.1"
  />
  <rect
    width="8"
    height="1"
    transform="matrix(-1 0 0 1 8 751)"
    fill="white"
    fillOpacity="0.1"
  />
  <rect
    width="8"
    height="1"
    transform="matrix(-1 0 0 1 8 760)"
    fill="white"
    fillOpacity="0.1"
  />
  <rect
    width="8"
    height="1"
    transform="matrix(-1 0 0 1 8 769)"
    fill="white"
    fillOpacity="0.1"
  />
  <rect
    width="8"
    height="1"
    transform="matrix(-1 0 0 1 8 778)"
    fill="white"
    fillOpacity="0.1"
  />
  <rect
    width="8"
    height="1"
    transform="matrix(-1 0 0 1 8 787)"
    fill="white"
    fillOpacity="0.1"
  />
  <rect
    width="8"
    height="1"
    transform="matrix(-1 0 0 1 8 796)"
    fill="white"
    fillOpacity="0.1"
  />
  <rect
    width="8"
    height="1"
    transform="matrix(-1 0 0 1 8 805)"
    fill="white"
    fillOpacity="0.1"
  />
  <rect
    width="8"
    height="1"
    transform="matrix(-1 0 0 1 8 814)"
    fill="white"
    fillOpacity="0.1"
  />
  <rect
    width="8"
    height="1"
    transform="matrix(-1 0 0 1 8 823)"
    fill="white"
    fillOpacity="0.1"
  />
  <rect
    width="8"
    height="1"
    transform="matrix(-1 0 0 1 8 832)"
    fill="white"
    fillOpacity="0.1"
  />
  <rect
    width="8"
    height="1"
    transform="matrix(-1 0 0 1 8 841)"
    fill="white"
    fillOpacity="0.1"
  />
</svg>
